<?xml version="1.0" encoding="utf-8" standalone="no"?>
<!DOCTYPE svg PUBLIC "-//W3C//DTD SVG 1.1//EN"
  "http://www.w3.org/Graphics/SVG/1.1/DTD/svg11.dtd">
<!-- Created with matplotlib (http://matplotlib.org/) -->
<svg height="345pt" version="1.1" viewBox="0 0 460 345" width="460pt" xmlns="http://www.w3.org/2000/svg" xmlns:xlink="http://www.w3.org/1999/xlink">
 <defs>
  <style type="text/css">
*{stroke-linecap:butt;stroke-linejoin:round;}
  </style>
 </defs>
 <g id="figure_1">
  <g id="patch_1">
   <path d="M 0 345.6 
L 460.8 345.6 
L 460.8 0 
L 0 0 
z
" style="fill:#ffffff;"/>
  </g>
  <g id="axes_1">
   <g id="patch_2">
    <path clip-path="url(#p0d68cf5190)" d="M 238.799883 257.875579 
C 238.793769 257.871682 238.787656 257.867785 238.781542 257.863887 
C 238.775429 257.859989 238.769317 257.85609 238.763204 257.852191 
C 238.595742 257.988351 238.427309 258.123313 238.257918 258.257066 
C 238.088526 258.39082 237.918182 258.523361 237.746897 258.65468 
C 237.923232 258.525966 238.09915 258.396682 238.274649 258.266831 
C 238.450148 258.13698 238.625227 258.006562 238.799883 257.875579 
M 238.799883 95.764891 
C 223.924068 84.608805 206.260281 77.760256 187.75209 75.9728 
C 169.243899 74.185343 150.595974 77.527033 133.86017 85.63018 
C 117.124365 93.733327 102.937871 106.289415 92.861643 121.916883 
C 82.785415 137.544352 77.203091 155.648209 76.7289 174.236466 
C 76.25471 192.824722 80.906707 211.189659 90.173027 227.310561 
C 99.439347 243.431462 112.967188 256.694549 129.268068 265.640469 
C 145.568947 274.586388 164.022232 278.874539 182.597488 278.033089 
C 201.172743 277.191639 219.162743 271.252627 234.588028 260.869528 
C 229.232507 264.29404 223.215781 266.553502 216.929943 267.500671 
C 210.644104 268.44784 204.228729 268.061684 198.101888 266.367368 
C 191.975047 264.673052 186.272784 261.708197 181.3667 257.666016 
C 176.460617 253.623834 172.45965 248.594081 169.624531 242.90453 
C 166.789412 237.214979 165.183094 230.991965 164.910256 224.641024 
C 164.637419 218.290083 165.70412 211.952236 168.040845 206.040501 
C 170.377571 200.128767 173.932434 194.774414 178.473776 190.326369 
C 183.015118 185.878324 188.4421 182.435355 194.401059 180.221831 
C 193.80885 163.498513 197.594012 146.90689 205.380551 132.095074 
C 213.167089 117.283258 224.688351 104.758485 238.799883 95.764891 
" style="fill:#ff0000;opacity:0.4;"/>
   </g>
   <g id="patch_3">
    <path clip-path="url(#p0d68cf5190)" d="M 238.799883 95.764891 
C 251.38321 105.201731 261.597854 117.440425 268.632206 131.508543 
C 275.666558 145.576661 279.329244 161.09147 279.329244 176.820235 
C 279.329244 192.549 275.666558 208.06381 268.632206 222.131927 
C 261.597854 236.200045 251.38321 248.438739 238.799883 257.875579 
C 253.328067 267.134714 270.081896 272.319765 287.300472 272.88576 
C 304.519048 273.451755 321.57722 269.378145 336.682103 261.093084 
C 351.786985 252.808023 364.390168 240.612314 373.167004 225.787779 
C 381.94384 210.963243 386.575671 194.048111 386.575671 176.820235 
C 386.575671 159.592359 381.94384 142.677227 373.167004 127.852692 
C 364.390168 113.028156 351.786985 100.832447 336.682103 92.547386 
C 321.57722 84.262325 304.519048 80.188715 287.300472 80.75471 
C 270.081896 81.320705 253.328067 86.505756 238.799883 95.764891 
" style="fill:#008000;opacity:0.4;"/>
   </g>
   <g id="patch_4">
    <path clip-path="url(#p0d68cf5190)" d="M 238.799883 95.764891 
C 224.688351 104.758485 213.167089 117.283258 205.380551 132.095074 
C 197.594012 146.90689 193.80885 163.498513 194.401059 180.221831 
C 204.464993 176.483467 215.537223 176.44094 225.629577 180.101888 
C 235.72193 183.762836 244.191875 190.894183 249.518516 200.215397 
C 254.845157 209.536612 256.689372 220.454255 254.720007 231.007915 
C 252.750641 241.561575 247.093076 251.07935 238.763204 257.852191 
C 238.769317 257.85609 238.775429 257.859989 238.781542 257.863887 
C 238.787656 257.867785 238.793769 257.871682 238.799883 257.875579 
C 251.38321 248.438739 261.597854 236.200045 268.632206 222.131927 
C 275.666558 208.06381 279.329244 192.549 279.329244 176.820235 
C 279.329244 161.09147 275.666558 145.576661 268.632206 131.508543 
C 261.597854 117.440425 251.38321 105.201731 238.799883 95.764891 
" style="fill:#b25900;opacity:0.4;"/>
   </g>
   <g id="patch_5">
    <path clip-path="url(#p0d68cf5190)" d="M 238.763204 257.852191 
C 225.632954 249.475631 214.733328 238.031849 207.005875 224.509397 
C 199.278422 210.986945 194.952247 195.786741 194.401059 180.221831 
C 188.4421 182.435355 183.015118 185.878324 178.473776 190.326369 
C 173.932434 194.774414 170.377571 200.128767 168.040845 206.040501 
C 165.70412 211.952236 164.637419 218.290083 164.910256 224.641024 
C 165.183094 230.991965 166.789412 237.214979 169.624531 242.90453 
C 172.45965 248.594081 176.460617 253.623834 181.3667 257.666016 
C 186.272784 261.708197 191.975047 264.673052 198.101888 266.367368 
C 204.228729 268.061684 210.644104 268.44784 216.929943 267.500671 
C 223.215781 266.553502 229.232507 264.29404 234.588028 260.869528 
C 235.121475 260.510453 235.651491 260.146307 236.178005 259.777141 
C 236.704519 259.407974 237.227507 259.033804 237.746897 258.65468 
C 237.918182 258.523361 238.088526 258.39082 238.257918 258.257066 
C 238.427309 258.123313 238.595742 257.988351 238.763204 257.852191 
" style="fill:#b200b2;opacity:0.4;"/>
   </g>
   <g id="patch_6">
    <path clip-path="url(#p0d68cf5190)" d="M 194.401059 180.221831 
C 194.952247 195.786741 199.278422 210.986945 207.005875 224.509397 
C 214.733328 238.031849 225.632954 249.475631 238.763204 257.852191 
C 247.093076 251.07935 252.750641 241.561575 254.720007 231.007915 
C 256.689372 220.454255 254.845157 209.536612 249.518516 200.215397 
C 244.191875 190.894183 235.72193 183.762836 225.629577 180.101888 
C 215.537223 176.44094 204.464993 176.483467 194.401059 180.221831 
" style="fill:#663366;opacity:0.4;"/>
   </g>
   <g id="patch_7">
    <path clip-path="url(#p0d68cf5190)" d="M 184.95454 279.167383 
C 212.705229 279.167383 239.323057 268.141918 258.945757 248.519217 
C 278.568458 228.896517 289.593923 202.278689 289.593923 174.528 
C 289.593923 146.777311 278.568458 120.159483 258.945757 100.536783 
C 239.323057 80.914082 212.705229 69.888617 184.95454 69.888617 
C 157.203851 69.888617 130.586023 80.914082 110.963322 100.536783 
C 91.340622 120.159483 80.315157 146.777311 80.315157 174.528 
C 80.315157 202.278689 91.340622 228.896517 110.963322 248.519217 
C 130.586023 268.141918 157.203851 279.167383 184.95454 279.167383 
z
" style="fill:#ff4500;opacity:0.6;stroke:#ff4500;stroke-linejoin:miter;stroke-width:2;"/>
   </g>
   <g id="patch_8">
    <path clip-path="url(#p0d68cf5190)" d="M 301.384479 265.148364 
C 325.417281 265.148364 348.468996 255.600031 365.462753 238.606274 
C 382.45651 221.612517 392.004843 198.560801 392.004843 174.528 
C 392.004843 150.495199 382.45651 127.443483 365.462753 110.449726 
C 348.468996 93.455969 325.417281 83.907636 301.384479 83.907636 
C 277.351678 83.907636 254.299962 93.455969 237.306205 110.449726 
C 220.312448 127.443483 210.764115 150.495199 210.764115 174.528 
C 210.764115 198.560801 220.312448 221.612517 237.306205 238.606274 
C 254.299962 255.600031 277.351678 265.148364 301.384479 265.148364 
z
" style="fill:#00bfff;opacity:0.6;stroke:#00bfff;stroke-linejoin:miter;stroke-width:2;"/>
   </g>
   <g id="patch_9">
    <path clip-path="url(#p0d68cf5190)" d="M 199.940254 276.575218 
C 215.962121 276.575218 231.329932 270.209662 242.659103 258.880491 
C 253.988274 247.55132 260.35383 232.183509 260.35383 216.161642 
C 260.35383 200.139774 253.988274 184.771964 242.659103 173.442792 
C 231.329932 162.113621 215.962121 155.748066 199.940254 155.748066 
C 183.918386 155.748066 168.550576 162.113621 157.221404 173.442792 
C 145.892233 184.771964 139.526678 200.139774 139.526678 216.161642 
C 139.526678 232.183509 145.892233 247.55132 157.221404 258.880491 
C 168.550576 270.209662 183.918386 276.575218 199.940254 276.575218 
z
" style="fill:#dc143c;opacity:0.6;stroke:#dc143c;stroke-linejoin:miter;stroke-width:2;"/>
   </g>
   <g id="text_1">
    <!-- 6 -->
    <defs>
     <path d="M 33.015625 40.375 
Q 26.375 40.375 22.484375 35.828125 
Q 18.609375 31.296875 18.609375 23.390625 
Q 18.609375 15.53125 22.484375 10.953125 
Q 26.375 6.390625 33.015625 6.390625 
Q 39.65625 6.390625 43.53125 10.953125 
Q 47.40625 15.53125 47.40625 23.390625 
Q 47.40625 31.296875 43.53125 35.828125 
Q 39.65625 40.375 33.015625 40.375 
z
M 52.59375 71.296875 
L 52.59375 62.3125 
Q 48.875 64.0625 45.09375 64.984375 
Q 41.3125 65.921875 37.59375 65.921875 
Q 27.828125 65.921875 22.671875 59.328125 
Q 17.53125 52.734375 16.796875 39.40625 
Q 19.671875 43.65625 24.015625 45.921875 
Q 28.375 48.1875 33.59375 48.1875 
Q 44.578125 48.1875 50.953125 41.515625 
Q 57.328125 34.859375 57.328125 23.390625 
Q 57.328125 12.15625 50.6875 5.359375 
Q 44.046875 -1.421875 33.015625 -1.421875 
Q 20.359375 -1.421875 13.671875 8.265625 
Q 6.984375 17.96875 6.984375 36.375 
Q 6.984375 53.65625 15.1875 63.9375 
Q 23.390625 74.21875 37.203125 74.21875 
Q 40.921875 74.21875 44.703125 73.484375 
Q 48.484375 72.75 52.59375 71.296875 
z
" id="DejaVuSans-36"/>
    </defs>
    <g transform="translate(124.315398 198.269545)scale(0.1 -0.1)">
     <use xlink:href="#DejaVuSans-36"/>
    </g>
   </g>
   <g id="text_2">
    <!-- 6 -->
    <g transform="translate(329.771207 179.57961)scale(0.1 -0.1)">
     <use xlink:href="#DejaVuSans-36"/>
    </g>
   </g>
   <g id="text_3">
    <!-- 2 -->
    <defs>
     <path d="M 19.1875 8.296875 
L 53.609375 8.296875 
L 53.609375 0 
L 7.328125 0 
L 7.328125 8.296875 
Q 12.9375 14.109375 22.625 23.890625 
Q 32.328125 33.6875 34.8125 36.53125 
Q 39.546875 41.84375 41.421875 45.53125 
Q 43.3125 49.21875 43.3125 52.78125 
Q 43.3125 58.59375 39.234375 62.25 
Q 35.15625 65.921875 28.609375 65.921875 
Q 23.96875 65.921875 18.8125 64.3125 
Q 13.671875 62.703125 7.8125 59.421875 
L 7.8125 69.390625 
Q 13.765625 71.78125 18.9375 73 
Q 24.125 74.21875 28.421875 74.21875 
Q 39.75 74.21875 46.484375 68.546875 
Q 53.21875 62.890625 53.21875 53.421875 
Q 53.21875 48.921875 51.53125 44.890625 
Q 49.859375 40.875 45.40625 35.40625 
Q 44.1875 33.984375 37.640625 27.21875 
Q 31.109375 20.453125 19.1875 8.296875 
z
" id="DejaVuSans-32"/>
    </defs>
    <g transform="translate(247.989907 182.982407)scale(0.1 -0.1)">
     <use xlink:href="#DejaVuSans-32"/>
    </g>
   </g>
   <g id="text_4">
    <!-- 1 -->
    <defs>
     <path d="M 12.40625 8.296875 
L 28.515625 8.296875 
L 28.515625 63.921875 
L 10.984375 60.40625 
L 10.984375 69.390625 
L 28.421875 72.90625 
L 38.28125 72.90625 
L 38.28125 8.296875 
L 54.390625 8.296875 
L 54.390625 0 
L 12.40625 0 
z
" id="DejaVuSans-31"/>
    </defs>
    <g transform="translate(175.708124 241.85518)scale(0.1 -0.1)">
     <use xlink:href="#DejaVuSans-31"/>
    </g>
   </g>
   <g id="text_5">
    <!-- 1 -->
    <g transform="translate(225.080946 215.121772)scale(0.1 -0.1)">
     <use xlink:href="#DejaVuSans-31"/>
    </g>
   </g>
   <g id="text_6">
    <!-- manghi_ghensi_PI -->
    <defs>
     <path d="M 52 44.1875 
Q 55.375 50.25 60.0625 53.125 
Q 64.75 56 71.09375 56 
Q 79.640625 56 84.28125 50.015625 
Q 88.921875 44.046875 88.921875 33.015625 
L 88.921875 0 
L 79.890625 0 
L 79.890625 32.71875 
Q 79.890625 40.578125 77.09375 44.375 
Q 74.3125 48.1875 68.609375 48.1875 
Q 61.625 48.1875 57.5625 43.546875 
Q 53.515625 38.921875 53.515625 30.90625 
L 53.515625 0 
L 44.484375 0 
L 44.484375 32.71875 
Q 44.484375 40.625 41.703125 44.40625 
Q 38.921875 48.1875 33.109375 48.1875 
Q 26.21875 48.1875 22.15625 43.53125 
Q 18.109375 38.875 18.109375 30.90625 
L 18.109375 0 
L 9.078125 0 
L 9.078125 54.6875 
L 18.109375 54.6875 
L 18.109375 46.1875 
Q 21.1875 51.21875 25.484375 53.609375 
Q 29.78125 56 35.6875 56 
Q 41.65625 56 45.828125 52.96875 
Q 50 49.953125 52 44.1875 
z
" id="DejaVuSans-6d"/>
     <path d="M 34.28125 27.484375 
Q 23.390625 27.484375 19.1875 25 
Q 14.984375 22.515625 14.984375 16.5 
Q 14.984375 11.71875 18.140625 8.90625 
Q 21.296875 6.109375 26.703125 6.109375 
Q 34.1875 6.109375 38.703125 11.40625 
Q 43.21875 16.703125 43.21875 25.484375 
L 43.21875 27.484375 
z
M 52.203125 31.203125 
L 52.203125 0 
L 43.21875 0 
L 43.21875 8.296875 
Q 40.140625 3.328125 35.546875 0.953125 
Q 30.953125 -1.421875 24.3125 -1.421875 
Q 15.921875 -1.421875 10.953125 3.296875 
Q 6 8.015625 6 15.921875 
Q 6 25.140625 12.171875 29.828125 
Q 18.359375 34.515625 30.609375 34.515625 
L 43.21875 34.515625 
L 43.21875 35.40625 
Q 43.21875 41.609375 39.140625 45 
Q 35.0625 48.390625 27.6875 48.390625 
Q 23 48.390625 18.546875 47.265625 
Q 14.109375 46.140625 10.015625 43.890625 
L 10.015625 52.203125 
Q 14.9375 54.109375 19.578125 55.046875 
Q 24.21875 56 28.609375 56 
Q 40.484375 56 46.34375 49.84375 
Q 52.203125 43.703125 52.203125 31.203125 
z
" id="DejaVuSans-61"/>
     <path d="M 54.890625 33.015625 
L 54.890625 0 
L 45.90625 0 
L 45.90625 32.71875 
Q 45.90625 40.484375 42.875 44.328125 
Q 39.84375 48.1875 33.796875 48.1875 
Q 26.515625 48.1875 22.3125 43.546875 
Q 18.109375 38.921875 18.109375 30.90625 
L 18.109375 0 
L 9.078125 0 
L 9.078125 54.6875 
L 18.109375 54.6875 
L 18.109375 46.1875 
Q 21.34375 51.125 25.703125 53.5625 
Q 30.078125 56 35.796875 56 
Q 45.21875 56 50.046875 50.171875 
Q 54.890625 44.34375 54.890625 33.015625 
z
" id="DejaVuSans-6e"/>
     <path d="M 45.40625 27.984375 
Q 45.40625 37.75 41.375 43.109375 
Q 37.359375 48.484375 30.078125 48.484375 
Q 22.859375 48.484375 18.828125 43.109375 
Q 14.796875 37.75 14.796875 27.984375 
Q 14.796875 18.265625 18.828125 12.890625 
Q 22.859375 7.515625 30.078125 7.515625 
Q 37.359375 7.515625 41.375 12.890625 
Q 45.40625 18.265625 45.40625 27.984375 
z
M 54.390625 6.78125 
Q 54.390625 -7.171875 48.1875 -13.984375 
Q 42 -20.796875 29.203125 -20.796875 
Q 24.46875 -20.796875 20.265625 -20.09375 
Q 16.0625 -19.390625 12.109375 -17.921875 
L 12.109375 -9.1875 
Q 16.0625 -11.328125 19.921875 -12.34375 
Q 23.78125 -13.375 27.78125 -13.375 
Q 36.625 -13.375 41.015625 -8.765625 
Q 45.40625 -4.15625 45.40625 5.171875 
L 45.40625 9.625 
Q 42.625 4.78125 38.28125 2.390625 
Q 33.9375 0 27.875 0 
Q 17.828125 0 11.671875 7.65625 
Q 5.515625 15.328125 5.515625 27.984375 
Q 5.515625 40.671875 11.671875 48.328125 
Q 17.828125 56 27.875 56 
Q 33.9375 56 38.28125 53.609375 
Q 42.625 51.21875 45.40625 46.390625 
L 45.40625 54.6875 
L 54.390625 54.6875 
z
" id="DejaVuSans-67"/>
     <path d="M 54.890625 33.015625 
L 54.890625 0 
L 45.90625 0 
L 45.90625 32.71875 
Q 45.90625 40.484375 42.875 44.328125 
Q 39.84375 48.1875 33.796875 48.1875 
Q 26.515625 48.1875 22.3125 43.546875 
Q 18.109375 38.921875 18.109375 30.90625 
L 18.109375 0 
L 9.078125 0 
L 9.078125 75.984375 
L 18.109375 75.984375 
L 18.109375 46.1875 
Q 21.34375 51.125 25.703125 53.5625 
Q 30.078125 56 35.796875 56 
Q 45.21875 56 50.046875 50.171875 
Q 54.890625 44.34375 54.890625 33.015625 
z
" id="DejaVuSans-68"/>
     <path d="M 9.421875 54.6875 
L 18.40625 54.6875 
L 18.40625 0 
L 9.421875 0 
z
M 9.421875 75.984375 
L 18.40625 75.984375 
L 18.40625 64.59375 
L 9.421875 64.59375 
z
" id="DejaVuSans-69"/>
     <path d="M 50.984375 -16.609375 
L 50.984375 -23.578125 
L -0.984375 -23.578125 
L -0.984375 -16.609375 
z
" id="DejaVuSans-5f"/>
     <path d="M 56.203125 29.59375 
L 56.203125 25.203125 
L 14.890625 25.203125 
Q 15.484375 15.921875 20.484375 11.0625 
Q 25.484375 6.203125 34.421875 6.203125 
Q 39.59375 6.203125 44.453125 7.46875 
Q 49.3125 8.734375 54.109375 11.28125 
L 54.109375 2.78125 
Q 49.265625 0.734375 44.1875 -0.34375 
Q 39.109375 -1.421875 33.890625 -1.421875 
Q 20.796875 -1.421875 13.15625 6.1875 
Q 5.515625 13.8125 5.515625 26.8125 
Q 5.515625 40.234375 12.765625 48.109375 
Q 20.015625 56 32.328125 56 
Q 43.359375 56 49.78125 48.890625 
Q 56.203125 41.796875 56.203125 29.59375 
z
M 47.21875 32.234375 
Q 47.125 39.59375 43.09375 43.984375 
Q 39.0625 48.390625 32.421875 48.390625 
Q 24.90625 48.390625 20.390625 44.140625 
Q 15.875 39.890625 15.1875 32.171875 
z
" id="DejaVuSans-65"/>
     <path d="M 44.28125 53.078125 
L 44.28125 44.578125 
Q 40.484375 46.53125 36.375 47.5 
Q 32.28125 48.484375 27.875 48.484375 
Q 21.1875 48.484375 17.84375 46.4375 
Q 14.5 44.390625 14.5 40.28125 
Q 14.5 37.15625 16.890625 35.375 
Q 19.28125 33.59375 26.515625 31.984375 
L 29.59375 31.296875 
Q 39.15625 29.25 43.1875 25.515625 
Q 47.21875 21.78125 47.21875 15.09375 
Q 47.21875 7.46875 41.1875 3.015625 
Q 35.15625 -1.421875 24.609375 -1.421875 
Q 20.21875 -1.421875 15.453125 -0.5625 
Q 10.6875 0.296875 5.421875 2 
L 5.421875 11.28125 
Q 10.40625 8.6875 15.234375 7.390625 
Q 20.0625 6.109375 24.8125 6.109375 
Q 31.15625 6.109375 34.5625 8.28125 
Q 37.984375 10.453125 37.984375 14.40625 
Q 37.984375 18.0625 35.515625 20.015625 
Q 33.0625 21.96875 24.703125 23.78125 
L 21.578125 24.515625 
Q 13.234375 26.265625 9.515625 29.90625 
Q 5.8125 33.546875 5.8125 39.890625 
Q 5.8125 47.609375 11.28125 51.796875 
Q 16.75 56 26.8125 56 
Q 31.78125 56 36.171875 55.265625 
Q 40.578125 54.546875 44.28125 53.078125 
z
" id="DejaVuSans-73"/>
     <path d="M 19.671875 64.796875 
L 19.671875 37.40625 
L 32.078125 37.40625 
Q 38.96875 37.40625 42.71875 40.96875 
Q 46.484375 44.53125 46.484375 51.125 
Q 46.484375 57.671875 42.71875 61.234375 
Q 38.96875 64.796875 32.078125 64.796875 
z
M 9.8125 72.90625 
L 32.078125 72.90625 
Q 44.34375 72.90625 50.609375 67.359375 
Q 56.890625 61.8125 56.890625 51.125 
Q 56.890625 40.328125 50.609375 34.8125 
Q 44.34375 29.296875 32.078125 29.296875 
L 19.671875 29.296875 
L 19.671875 0 
L 9.8125 0 
z
" id="DejaVuSans-50"/>
     <path d="M 9.8125 72.90625 
L 19.671875 72.90625 
L 19.671875 0 
L 9.8125 0 
z
" id="DejaVuSans-49"/>
    </defs>
    <g transform="translate(19.577398 75.503588)scale(0.12 -0.12)">
     <use xlink:href="#DejaVuSans-6d"/>
     <use x="97.412109" xlink:href="#DejaVuSans-61"/>
     <use x="158.691406" xlink:href="#DejaVuSans-6e"/>
     <use x="222.070312" xlink:href="#DejaVuSans-67"/>
     <use x="285.546875" xlink:href="#DejaVuSans-68"/>
     <use x="348.925781" xlink:href="#DejaVuSans-69"/>
     <use x="376.708984" xlink:href="#DejaVuSans-5f"/>
     <use x="426.708984" xlink:href="#DejaVuSans-67"/>
     <use x="490.185547" xlink:href="#DejaVuSans-68"/>
     <use x="553.564453" xlink:href="#DejaVuSans-65"/>
     <use x="615.087891" xlink:href="#DejaVuSans-6e"/>
     <use x="678.466797" xlink:href="#DejaVuSans-73"/>
     <use x="730.566406" xlink:href="#DejaVuSans-69"/>
     <use x="758.349609" xlink:href="#DejaVuSans-5f"/>
     <use x="808.349609" xlink:href="#DejaVuSans-50"/>
     <use x="868.652344" xlink:href="#DejaVuSans-49"/>
    </g>
   </g>
   <g id="text_7">
    <!-- manghi_ghensi_MU -->
    <defs>
     <path d="M 9.8125 72.90625 
L 24.515625 72.90625 
L 43.109375 23.296875 
L 61.8125 72.90625 
L 76.515625 72.90625 
L 76.515625 0 
L 66.890625 0 
L 66.890625 64.015625 
L 48.09375 14.015625 
L 38.1875 14.015625 
L 19.390625 64.015625 
L 19.390625 0 
L 9.8125 0 
z
" id="DejaVuSans-4d"/>
     <path d="M 8.6875 72.90625 
L 18.609375 72.90625 
L 18.609375 28.609375 
Q 18.609375 16.890625 22.84375 11.734375 
Q 27.09375 6.59375 36.625 6.59375 
Q 46.09375 6.59375 50.34375 11.734375 
Q 54.59375 16.890625 54.59375 28.609375 
L 54.59375 72.90625 
L 64.5 72.90625 
L 64.5 27.390625 
Q 64.5 13.140625 57.4375 5.859375 
Q 50.390625 -1.421875 36.625 -1.421875 
Q 22.796875 -1.421875 15.734375 5.859375 
Q 8.6875 13.140625 8.6875 27.390625 
z
" id="DejaVuSans-55"/>
    </defs>
    <g transform="translate(338.516966 80.702824)scale(0.12 -0.12)">
     <use xlink:href="#DejaVuSans-6d"/>
     <use x="97.412109" xlink:href="#DejaVuSans-61"/>
     <use x="158.691406" xlink:href="#DejaVuSans-6e"/>
     <use x="222.070312" xlink:href="#DejaVuSans-67"/>
     <use x="285.546875" xlink:href="#DejaVuSans-68"/>
     <use x="348.925781" xlink:href="#DejaVuSans-69"/>
     <use x="376.708984" xlink:href="#DejaVuSans-5f"/>
     <use x="426.708984" xlink:href="#DejaVuSans-67"/>
     <use x="490.185547" xlink:href="#DejaVuSans-68"/>
     <use x="553.564453" xlink:href="#DejaVuSans-65"/>
     <use x="615.087891" xlink:href="#DejaVuSans-6e"/>
     <use x="678.466797" xlink:href="#DejaVuSans-73"/>
     <use x="730.566406" xlink:href="#DejaVuSans-69"/>
     <use x="758.349609" xlink:href="#DejaVuSans-5f"/>
     <use x="808.349609" xlink:href="#DejaVuSans-4d"/>
     <use x="894.628906" xlink:href="#DejaVuSans-55"/>
    </g>
   </g>
   <g id="text_8">
    <!-- socransky_red_complex -->
    <defs>
     <path d="M 30.609375 48.390625 
Q 23.390625 48.390625 19.1875 42.75 
Q 14.984375 37.109375 14.984375 27.296875 
Q 14.984375 17.484375 19.15625 11.84375 
Q 23.34375 6.203125 30.609375 6.203125 
Q 37.796875 6.203125 41.984375 11.859375 
Q 46.1875 17.53125 46.1875 27.296875 
Q 46.1875 37.015625 41.984375 42.703125 
Q 37.796875 48.390625 30.609375 48.390625 
z
M 30.609375 56 
Q 42.328125 56 49.015625 48.375 
Q 55.71875 40.765625 55.71875 27.296875 
Q 55.71875 13.875 49.015625 6.21875 
Q 42.328125 -1.421875 30.609375 -1.421875 
Q 18.84375 -1.421875 12.171875 6.21875 
Q 5.515625 13.875 5.515625 27.296875 
Q 5.515625 40.765625 12.171875 48.375 
Q 18.84375 56 30.609375 56 
z
" id="DejaVuSans-6f"/>
     <path d="M 48.78125 52.59375 
L 48.78125 44.1875 
Q 44.96875 46.296875 41.140625 47.34375 
Q 37.3125 48.390625 33.40625 48.390625 
Q 24.65625 48.390625 19.8125 42.84375 
Q 14.984375 37.3125 14.984375 27.296875 
Q 14.984375 17.28125 19.8125 11.734375 
Q 24.65625 6.203125 33.40625 6.203125 
Q 37.3125 6.203125 41.140625 7.25 
Q 44.96875 8.296875 48.78125 10.40625 
L 48.78125 2.09375 
Q 45.015625 0.34375 40.984375 -0.53125 
Q 36.96875 -1.421875 32.421875 -1.421875 
Q 20.0625 -1.421875 12.78125 6.34375 
Q 5.515625 14.109375 5.515625 27.296875 
Q 5.515625 40.671875 12.859375 48.328125 
Q 20.21875 56 33.015625 56 
Q 37.15625 56 41.109375 55.140625 
Q 45.0625 54.296875 48.78125 52.59375 
z
" id="DejaVuSans-63"/>
     <path d="M 41.109375 46.296875 
Q 39.59375 47.171875 37.8125 47.578125 
Q 36.03125 48 33.890625 48 
Q 26.265625 48 22.1875 43.046875 
Q 18.109375 38.09375 18.109375 28.8125 
L 18.109375 0 
L 9.078125 0 
L 9.078125 54.6875 
L 18.109375 54.6875 
L 18.109375 46.1875 
Q 20.953125 51.171875 25.484375 53.578125 
Q 30.03125 56 36.53125 56 
Q 37.453125 56 38.578125 55.875 
Q 39.703125 55.765625 41.0625 55.515625 
z
" id="DejaVuSans-72"/>
     <path d="M 9.078125 75.984375 
L 18.109375 75.984375 
L 18.109375 31.109375 
L 44.921875 54.6875 
L 56.390625 54.6875 
L 27.390625 29.109375 
L 57.625 0 
L 45.90625 0 
L 18.109375 26.703125 
L 18.109375 0 
L 9.078125 0 
z
" id="DejaVuSans-6b"/>
     <path d="M 32.171875 -5.078125 
Q 28.375 -14.84375 24.75 -17.8125 
Q 21.140625 -20.796875 15.09375 -20.796875 
L 7.90625 -20.796875 
L 7.90625 -13.28125 
L 13.1875 -13.28125 
Q 16.890625 -13.28125 18.9375 -11.515625 
Q 21 -9.765625 23.484375 -3.21875 
L 25.09375 0.875 
L 2.984375 54.6875 
L 12.5 54.6875 
L 29.59375 11.921875 
L 46.6875 54.6875 
L 56.203125 54.6875 
z
" id="DejaVuSans-79"/>
     <path d="M 45.40625 46.390625 
L 45.40625 75.984375 
L 54.390625 75.984375 
L 54.390625 0 
L 45.40625 0 
L 45.40625 8.203125 
Q 42.578125 3.328125 38.25 0.953125 
Q 33.9375 -1.421875 27.875 -1.421875 
Q 17.96875 -1.421875 11.734375 6.484375 
Q 5.515625 14.40625 5.515625 27.296875 
Q 5.515625 40.1875 11.734375 48.09375 
Q 17.96875 56 27.875 56 
Q 33.9375 56 38.25 53.625 
Q 42.578125 51.265625 45.40625 46.390625 
z
M 14.796875 27.296875 
Q 14.796875 17.390625 18.875 11.75 
Q 22.953125 6.109375 30.078125 6.109375 
Q 37.203125 6.109375 41.296875 11.75 
Q 45.40625 17.390625 45.40625 27.296875 
Q 45.40625 37.203125 41.296875 42.84375 
Q 37.203125 48.484375 30.078125 48.484375 
Q 22.953125 48.484375 18.875 42.84375 
Q 14.796875 37.203125 14.796875 27.296875 
z
" id="DejaVuSans-64"/>
     <path d="M 18.109375 8.203125 
L 18.109375 -20.796875 
L 9.078125 -20.796875 
L 9.078125 54.6875 
L 18.109375 54.6875 
L 18.109375 46.390625 
Q 20.953125 51.265625 25.265625 53.625 
Q 29.59375 56 35.59375 56 
Q 45.5625 56 51.78125 48.09375 
Q 58.015625 40.1875 58.015625 27.296875 
Q 58.015625 14.40625 51.78125 6.484375 
Q 45.5625 -1.421875 35.59375 -1.421875 
Q 29.59375 -1.421875 25.265625 0.953125 
Q 20.953125 3.328125 18.109375 8.203125 
z
M 48.6875 27.296875 
Q 48.6875 37.203125 44.609375 42.84375 
Q 40.53125 48.484375 33.40625 48.484375 
Q 26.265625 48.484375 22.1875 42.84375 
Q 18.109375 37.203125 18.109375 27.296875 
Q 18.109375 17.390625 22.1875 11.75 
Q 26.265625 6.109375 33.40625 6.109375 
Q 40.53125 6.109375 44.609375 11.75 
Q 48.6875 17.390625 48.6875 27.296875 
z
" id="DejaVuSans-70"/>
     <path d="M 9.421875 75.984375 
L 18.40625 75.984375 
L 18.40625 0 
L 9.421875 0 
z
" id="DejaVuSans-6c"/>
     <path d="M 54.890625 54.6875 
L 35.109375 28.078125 
L 55.90625 0 
L 45.3125 0 
L 29.390625 21.484375 
L 13.484375 0 
L 2.875 0 
L 24.125 28.609375 
L 4.6875 54.6875 
L 15.28125 54.6875 
L 29.78125 35.203125 
L 44.28125 54.6875 
z
" id="DejaVuSans-78"/>
    </defs>
    <g transform="translate(138.489935 281.655609)scale(0.12 -0.12)">
     <use xlink:href="#DejaVuSans-73"/>
     <use x="52.099609" xlink:href="#DejaVuSans-6f"/>
     <use x="113.28125" xlink:href="#DejaVuSans-63"/>
     <use x="168.261719" xlink:href="#DejaVuSans-72"/>
     <use x="209.375" xlink:href="#DejaVuSans-61"/>
     <use x="270.654297" xlink:href="#DejaVuSans-6e"/>
     <use x="334.033203" xlink:href="#DejaVuSans-73"/>
     <use x="386.132812" xlink:href="#DejaVuSans-6b"/>
     <use x="443.996094" xlink:href="#DejaVuSans-79"/>
     <use x="503.175781" xlink:href="#DejaVuSans-5f"/>
     <use x="553.175781" xlink:href="#DejaVuSans-72"/>
     <use x="594.257812" xlink:href="#DejaVuSans-65"/>
     <use x="655.78125" xlink:href="#DejaVuSans-64"/>
     <use x="719.257812" xlink:href="#DejaVuSans-5f"/>
     <use x="769.257812" xlink:href="#DejaVuSans-63"/>
     <use x="824.238281" xlink:href="#DejaVuSans-6f"/>
     <use x="885.419922" xlink:href="#DejaVuSans-6d"/>
     <use x="982.832031" xlink:href="#DejaVuSans-70"/>
     <use x="1046.308594" xlink:href="#DejaVuSans-6c"/>
     <use x="1074.091797" xlink:href="#DejaVuSans-65"/>
     <use x="1135.599609" xlink:href="#DejaVuSans-78"/>
    </g>
   </g>
  </g>
  <g id="text_9">
   <!-- Shotgun-Metagenomics is more powerful than enything else, you see: -->
   <defs>
    <path d="M 53.515625 70.515625 
L 53.515625 60.890625 
Q 47.90625 63.578125 42.921875 64.890625 
Q 37.9375 66.21875 33.296875 66.21875 
Q 25.25 66.21875 20.875 63.09375 
Q 16.5 59.96875 16.5 54.203125 
Q 16.5 49.359375 19.40625 46.890625 
Q 22.3125 44.4375 30.421875 42.921875 
L 36.375 41.703125 
Q 47.40625 39.59375 52.65625 34.296875 
Q 57.90625 29 57.90625 20.125 
Q 57.90625 9.515625 50.796875 4.046875 
Q 43.703125 -1.421875 29.984375 -1.421875 
Q 24.8125 -1.421875 18.96875 -0.25 
Q 13.140625 0.921875 6.890625 3.21875 
L 6.890625 13.375 
Q 12.890625 10.015625 18.65625 8.296875 
Q 24.421875 6.59375 29.984375 6.59375 
Q 38.421875 6.59375 43.015625 9.90625 
Q 47.609375 13.234375 47.609375 19.390625 
Q 47.609375 24.75 44.3125 27.78125 
Q 41.015625 30.8125 33.5 32.328125 
L 27.484375 33.5 
Q 16.453125 35.6875 11.515625 40.375 
Q 6.59375 45.0625 6.59375 53.421875 
Q 6.59375 63.09375 13.40625 68.65625 
Q 20.21875 74.21875 32.171875 74.21875 
Q 37.3125 74.21875 42.625 73.28125 
Q 47.953125 72.359375 53.515625 70.515625 
z
" id="DejaVuSans-53"/>
    <path d="M 18.3125 70.21875 
L 18.3125 54.6875 
L 36.8125 54.6875 
L 36.8125 47.703125 
L 18.3125 47.703125 
L 18.3125 18.015625 
Q 18.3125 11.328125 20.140625 9.421875 
Q 21.96875 7.515625 27.59375 7.515625 
L 36.8125 7.515625 
L 36.8125 0 
L 27.59375 0 
Q 17.1875 0 13.234375 3.875 
Q 9.28125 7.765625 9.28125 18.015625 
L 9.28125 47.703125 
L 2.6875 47.703125 
L 2.6875 54.6875 
L 9.28125 54.6875 
L 9.28125 70.21875 
z
" id="DejaVuSans-74"/>
    <path d="M 8.5 21.578125 
L 8.5 54.6875 
L 17.484375 54.6875 
L 17.484375 21.921875 
Q 17.484375 14.15625 20.5 10.265625 
Q 23.53125 6.390625 29.59375 6.390625 
Q 36.859375 6.390625 41.078125 11.03125 
Q 45.3125 15.671875 45.3125 23.6875 
L 45.3125 54.6875 
L 54.296875 54.6875 
L 54.296875 0 
L 45.3125 0 
L 45.3125 8.40625 
Q 42.046875 3.421875 37.71875 1 
Q 33.40625 -1.421875 27.6875 -1.421875 
Q 18.265625 -1.421875 13.375 4.4375 
Q 8.5 10.296875 8.5 21.578125 
z
M 31.109375 56 
z
" id="DejaVuSans-75"/>
    <path d="M 4.890625 31.390625 
L 31.203125 31.390625 
L 31.203125 23.390625 
L 4.890625 23.390625 
z
" id="DejaVuSans-2d"/>
    <path id="DejaVuSans-20"/>
    <path d="M 4.203125 54.6875 
L 13.1875 54.6875 
L 24.421875 12.015625 
L 35.59375 54.6875 
L 46.1875 54.6875 
L 57.421875 12.015625 
L 68.609375 54.6875 
L 77.59375 54.6875 
L 63.28125 0 
L 52.6875 0 
L 40.921875 44.828125 
L 29.109375 0 
L 18.5 0 
z
" id="DejaVuSans-77"/>
    <path d="M 37.109375 75.984375 
L 37.109375 68.5 
L 28.515625 68.5 
Q 23.6875 68.5 21.796875 66.546875 
Q 19.921875 64.59375 19.921875 59.515625 
L 19.921875 54.6875 
L 34.71875 54.6875 
L 34.71875 47.703125 
L 19.921875 47.703125 
L 19.921875 0 
L 10.890625 0 
L 10.890625 47.703125 
L 2.296875 47.703125 
L 2.296875 54.6875 
L 10.890625 54.6875 
L 10.890625 58.5 
Q 10.890625 67.625 15.140625 71.796875 
Q 19.390625 75.984375 28.609375 75.984375 
z
" id="DejaVuSans-66"/>
    <path d="M 11.71875 12.40625 
L 22.015625 12.40625 
L 22.015625 4 
L 14.015625 -11.625 
L 7.71875 -11.625 
L 11.71875 4 
z
" id="DejaVuSans-2c"/>
    <path d="M 11.71875 12.40625 
L 22.015625 12.40625 
L 22.015625 0 
L 11.71875 0 
z
M 11.71875 51.703125 
L 22.015625 51.703125 
L 22.015625 39.3125 
L 11.71875 39.3125 
z
" id="DejaVuSans-3a"/>
   </defs>
   <g transform="translate(19.779375 16.030125)scale(0.12 -0.12)">
    <use xlink:href="#DejaVuSans-53"/>
    <use x="63.476562" xlink:href="#DejaVuSans-68"/>
    <use x="126.855469" xlink:href="#DejaVuSans-6f"/>
    <use x="188.037109" xlink:href="#DejaVuSans-74"/>
    <use x="227.246094" xlink:href="#DejaVuSans-67"/>
    <use x="290.722656" xlink:href="#DejaVuSans-75"/>
    <use x="354.101562" xlink:href="#DejaVuSans-6e"/>
    <use x="417.480469" xlink:href="#DejaVuSans-2d"/>
    <use x="453.564453" xlink:href="#DejaVuSans-4d"/>
    <use x="539.84375" xlink:href="#DejaVuSans-65"/>
    <use x="601.367188" xlink:href="#DejaVuSans-74"/>
    <use x="640.576172" xlink:href="#DejaVuSans-61"/>
    <use x="701.855469" xlink:href="#DejaVuSans-67"/>
    <use x="765.332031" xlink:href="#DejaVuSans-65"/>
    <use x="826.855469" xlink:href="#DejaVuSans-6e"/>
    <use x="890.234375" xlink:href="#DejaVuSans-6f"/>
    <use x="951.416016" xlink:href="#DejaVuSans-6d"/>
    <use x="1048.828125" xlink:href="#DejaVuSans-69"/>
    <use x="1076.611328" xlink:href="#DejaVuSans-63"/>
    <use x="1131.591797" xlink:href="#DejaVuSans-73"/>
    <use x="1183.691406" xlink:href="#DejaVuSans-20"/>
    <use x="1215.478516" xlink:href="#DejaVuSans-69"/>
    <use x="1243.261719" xlink:href="#DejaVuSans-73"/>
    <use x="1295.361328" xlink:href="#DejaVuSans-20"/>
    <use x="1327.148438" xlink:href="#DejaVuSans-6d"/>
    <use x="1424.560547" xlink:href="#DejaVuSans-6f"/>
    <use x="1485.742188" xlink:href="#DejaVuSans-72"/>
    <use x="1526.824219" xlink:href="#DejaVuSans-65"/>
    <use x="1588.347656" xlink:href="#DejaVuSans-20"/>
    <use x="1620.134766" xlink:href="#DejaVuSans-70"/>
    <use x="1683.611328" xlink:href="#DejaVuSans-6f"/>
    <use x="1744.792969" xlink:href="#DejaVuSans-77"/>
    <use x="1826.580078" xlink:href="#DejaVuSans-65"/>
    <use x="1888.103516" xlink:href="#DejaVuSans-72"/>
    <use x="1929.216797" xlink:href="#DejaVuSans-66"/>
    <use x="1964.421875" xlink:href="#DejaVuSans-75"/>
    <use x="2027.800781" xlink:href="#DejaVuSans-6c"/>
    <use x="2055.583984" xlink:href="#DejaVuSans-20"/>
    <use x="2087.371094" xlink:href="#DejaVuSans-74"/>
    <use x="2126.580078" xlink:href="#DejaVuSans-68"/>
    <use x="2189.958984" xlink:href="#DejaVuSans-61"/>
    <use x="2251.238281" xlink:href="#DejaVuSans-6e"/>
    <use x="2314.617188" xlink:href="#DejaVuSans-20"/>
    <use x="2346.404297" xlink:href="#DejaVuSans-65"/>
    <use x="2407.927734" xlink:href="#DejaVuSans-6e"/>
    <use x="2471.306641" xlink:href="#DejaVuSans-79"/>
    <use x="2530.486328" xlink:href="#DejaVuSans-74"/>
    <use x="2569.695312" xlink:href="#DejaVuSans-68"/>
    <use x="2633.074219" xlink:href="#DejaVuSans-69"/>
    <use x="2660.857422" xlink:href="#DejaVuSans-6e"/>
    <use x="2724.236328" xlink:href="#DejaVuSans-67"/>
    <use x="2787.712891" xlink:href="#DejaVuSans-20"/>
    <use x="2819.5" xlink:href="#DejaVuSans-65"/>
    <use x="2881.023438" xlink:href="#DejaVuSans-6c"/>
    <use x="2908.806641" xlink:href="#DejaVuSans-73"/>
    <use x="2960.90625" xlink:href="#DejaVuSans-65"/>
    <use x="3022.429688" xlink:href="#DejaVuSans-2c"/>
    <use x="3054.216797" xlink:href="#DejaVuSans-20"/>
    <use x="3086.003906" xlink:href="#DejaVuSans-79"/>
    <use x="3145.183594" xlink:href="#DejaVuSans-6f"/>
    <use x="3206.365234" xlink:href="#DejaVuSans-75"/>
    <use x="3269.744141" xlink:href="#DejaVuSans-20"/>
    <use x="3301.53125" xlink:href="#DejaVuSans-73"/>
    <use x="3353.630859" xlink:href="#DejaVuSans-65"/>
    <use x="3415.154297" xlink:href="#DejaVuSans-65"/>
    <use x="3476.677734" xlink:href="#DejaVuSans-3a"/>
   </g>
  </g>
 </g>
 <defs>
  <clipPath id="p0d68cf5190">
   <rect height="254.70908" width="357.12" x="57.6" y="47.17346"/>
  </clipPath>
 </defs>
</svg>
